<svg xmlns="http://www.w3.org/2000/svg" height="800" width="1200" xml:space="preserve" y="0" x="0" id="Layer_1" version="1.1" viewBox="-55.0437 -34.741 477.0454 208.446"><style id="style2" type="text/css">.st0{fill-rule:evenodd;clip-rule:evenodd;fill:#ec1944}</style><path class="st0" d="M208.305 67.69c0-4.193 5.89-7.236 14.923-7.236 10.302 0 19.98 3.655 26.003 8.793 1.12.953 2.83.654 3.561-.624l7.353-14.62a2.25 2.25 0 00-.603-2.92c-9.084-6.826-21.31-11.73-36.51-11.73-24.935 0-38.871 13.94-38.871 29.843 0 37.13 56.346 24.28 56.346 40.606 0 4.467-5.104 8.25-15.902 8.25-10.73 0-23.409-4.232-30.779-10.084-1.098-.872-2.718-.577-3.458.62l-8.349 13.965a2.242 2.242 0 00.462 2.898c10.059 8.452 25.234 13.44 40.948 13.44 26.307 0 41.033-12.956 41.033-30.427-.012-37.417-56.157-25.858-56.157-40.773z" id="path10" clip-rule="evenodd" fill="#ec1944" fill-rule="evenodd" stroke-width="4.275"/><path class="st0" d="M94.703 4.39H72.77a1.6 1.6 0 00-1.598 1.599v46.296c-7.349-8.028-17.206-12.919-28.3-12.919C19.195 39.366 0 61.646 0 89.13c0 27.482 19.194 49.762 42.867 49.762 11.093 0 20.955-4.89 28.3-12.918v8.964a1.6 1.6 0 001.598 1.599h21.934a1.6 1.6 0 001.599-1.599V5.985c0-.88-.714-1.595-1.595-1.595zm-46.57 113.602c-12.725 0-23.036-12.927-23.036-28.876 0-15.95 10.315-28.876 23.037-28.876 12.666 0 22.942 12.816 23.032 28.662v.423c-.085 15.856-10.362 28.667-23.032 28.667z" id="path12" clip-rule="evenodd" fill="#ec1944" fill-rule="evenodd" stroke-width="4.275"/><path class="st0" d="M329.212 39.358c-11.589 0-20.501 4.869-26.354 12.815V5.985a1.6 1.6 0 00-1.598-1.6h-21.934a1.6 1.6 0 00-1.599 1.6v128.952a1.6 1.6 0 001.599 1.599h21.934a1.6 1.6 0 001.598-1.599V79.793c.017-12.483 8.935-19.442 19.703-19.442 10.78 0 19.245 6.626 19.245 22.896l.021 51.69a1.6 1.6 0 001.599 1.599h21.934a1.6 1.6 0 001.598-1.599v-53.22c.004-29.261-16.79-42.36-37.746-42.36z" id="path14" clip-rule="evenodd" fill="#ec1944" fill-rule="evenodd" stroke-width="4.275"/><path d="M124.797 14.85c0-8.207 6.84-14.85 14.85-14.85 8.208 0 14.851 6.643 14.851 14.85 0 8.208-6.643 14.851-14.85 14.851-8.011 0-14.85-6.643-14.85-14.85zm43.278 97.555c-10.037 5.83-20.8 7.37-28.213 7.382-7.413-.012-18.18-1.547-28.214-7.382-1.646-.92-2.522.688-2.18 2.09 3.407 14 15.671 24.383 30.304 24.469h.18c14.632-.086 26.896-10.465 30.303-24.469.342-1.406-.534-3.013-2.18-2.09zm-5.938-35.357c-7.925 4.604-16.423 5.818-22.275 5.827-5.852-.009-14.355-1.223-22.276-5.827-1.3-.726-1.992.543-1.723 1.65 2.689 11.055 12.371 19.254 23.926 19.318h.141c11.555-.068 21.237-8.263 23.926-19.318.274-1.107-.419-2.376-1.719-1.65zm-6.322-30.132c-5.673 3.295-11.764 4.167-15.953 4.172-4.19-.009-10.281-.877-15.954-4.172-.932-.522-1.423.389-1.23 1.18 1.927 7.916 8.86 13.785 17.132 13.832h.103c8.276-.047 15.21-5.916 17.133-13.833.193-.79-.303-1.697-1.23-1.18z" id="path16" fill="#ec1944" stroke-width="4.275"/></svg>