<?xml version="1.0" encoding="UTF-8" standalone="no"?>
<!-- Created with Inkscape (http://www.inkscape.org/) -->

<svg
   xmlns:dc="http://purl.org/dc/elements/1.1/"
   xmlns:cc="http://creativecommons.org/ns#"
   xmlns:rdf="http://www.w3.org/1999/02/22-rdf-syntax-ns#"
   xmlns:svg="http://www.w3.org/2000/svg"
   xmlns="http://www.w3.org/2000/svg"
   xmlns:sodipodi="http://sodipodi.sourceforge.net/DTD/sodipodi-0.dtd"
   xmlns:inkscape="http://www.inkscape.org/namespaces/inkscape"
   width="102.45055"
   height="31.700583"
   viewBox="0 0 27.106708 8.387446"
   version="1.1"
   id="svg8"
   inkscape:version="0.92.3 (2405546, 2018-03-11)"
   sodipodi:docname="ine.svg">
  <defs
     id="defs2" />
  <sodipodi:namedview
     id="base"
     pagecolor="#00ffff"
     bordercolor="#666666"
     borderopacity="1.0"
     inkscape:pageopacity="0"
     inkscape:pageshadow="2"
     inkscape:zoom="1.4"
     inkscape:cx="274.92326"
     inkscape:cy="104.70689"
     inkscape:document-units="mm"
     inkscape:current-layer="layer1"
     showgrid="false"
     fit-margin-left="0.1"
     fit-margin-top="0.1"
     fit-margin-right="0.1"
     fit-margin-bottom="0.1"
     units="px"
     inkscape:window-width="1920"
     inkscape:window-height="1001"
     inkscape:window-x="-9"
     inkscape:window-y="-9"
     inkscape:window-maximized="1" />
  <metadata
     id="metadata5">
    <rdf:RDF>
      <cc:Work
         rdf:about="">
        <dc:format>image/svg+xml</dc:format>
        <dc:type
           rdf:resource="http://purl.org/dc/dcmitype/StillImage" />
        <dc:title></dc:title>
      </cc:Work>
    </rdf:RDF>
  </metadata>
  <g
     inkscape:label="Layer 1"
     inkscape:groupmode="layer"
     id="layer1"
     transform="translate(-16.804233,-146.2019)">
    <g
       id="g518"
       transform="matrix(0.19679007,0,0,0.19679007,117.86902,148.58889)">
      <path
         inkscape:connector-curvature="0"
         id="path178"
         style="fill:#231f20;fill-opacity:1;fill-rule:nonzero;stroke:none;stroke-width:0.03527778"
         d="m -462.48423,19.301481 h 9.79558 V -4.9361182 h -9.79558 V 19.301481" />
      <path
         inkscape:connector-curvature="0"
         id="path180"
         style="fill:#231f20;fill-opacity:1;fill-rule:nonzero;stroke:none;stroke-width:0.03527778"
         d="M -421.29284,9.1294855 -439.2517,-4.9361182 h -9.79523 V 19.301481 h 9.79523 V 5.4874075 l 17.95886,13.8140735 h 9.79523 V -4.9361182 h -9.79523 V 9.1294855" />
      <path
         inkscape:connector-curvature="0"
         id="path182"
         style="fill:#231f20;fill-opacity:1;fill-rule:nonzero;stroke:none;stroke-width:0.03527778"
         d="M -375.95666,-0.41527066 V -4.9361182 h -31.77293 V 19.301481 h 9.79558 21.97735 v -4.520848 h -21.97735 V 9.4427522 h 21.97735 V 4.9219047 h -21.97735 v -5.33717536 h 21.97735" />
      <path
         inkscape:connector-curvature="0"
         id="path184"
         style="fill:#d4098d;fill-opacity:1;fill-rule:nonzero;stroke:none;stroke-width:0.03527778"
         d="m -506.00167,5.0231519 c 0,0 6.97537,9.1923311 16.222,14.5997091 0,0 15.35673,-14.0045729 17.73586,-14.3291285 0,0 -12.53172,-8.2049061 -16.58867,-17.2889345 0,0 -10.74949,7.0492061 -17.36919,17.0183539" />
      <path
         inkscape:connector-curvature="0"
         id="path186"
         style="fill:#231f20;fill-opacity:1;fill-rule:nonzero;stroke:none;stroke-width:0.03527778"
         d="m -472.85978,11.189708 h -7.30603 c -0.27023,0.226836 -0.54098,0.455789 -0.81139,0.685447 h 8.11742 l 1.51342,0.759178 h -10.52104 c -0.37274,0.319617 -0.74302,0.638175 -1.10793,0.954264 h 11.89531 4.40796 l -6.18772,-2.398889" />
      <path
         inkscape:connector-curvature="0"
         id="path188"
         style="fill:#231f20;fill-opacity:1;fill-rule:nonzero;stroke:none;stroke-width:0.03527778"
         d="m -498.96774,12.634333 h -9.49674 l 1.51335,-0.759178 h 7.18343 c -0.23992,-0.231069 -0.47335,-0.459669 -0.70157,-0.685447 h -6.48186 l -6.18767,2.398889 h 4.40794 10.80974 c -0.35732,-0.319617 -0.7083,-0.638175 -1.04662,-0.954264" />
      <path
         inkscape:connector-curvature="0"
         id="path190"
         style="fill:#231f20;fill-opacity:1;fill-rule:nonzero;stroke:none;stroke-width:0.03527778"
         d="m -511.81286,23.107953 v 7.132814 h -1.61919 v -7.132814 h 1.61919" />
      <path
         inkscape:connector-curvature="0"
         id="path192"
         style="fill:#231f20;fill-opacity:1;fill-rule:nonzero;stroke:none;stroke-width:0.03527778"
         d="m -510.1723,26.716517 c 0,-0.645583 -0.0214,-1.195917 -0.0423,-1.650647 h 1.39693 l 0.074,0.70873 h 0.0318 c 0.21153,-0.328083 0.74069,-0.825147 1.59812,-0.825147 1.05805,0 1.8518,0.698147 1.8518,2.222148 v 3.069166 h -1.60859 v -2.868083 c 0,-0.66675 -0.23287,-1.121834 -0.81485,-1.121834 -0.44425,0 -0.70884,0.306917 -0.81495,0.603251 -0.0421,0.09525 -0.0635,0.254 -0.0635,0.402166 v 2.9845 h -1.60844 v -3.52425" />
      <path
         inkscape:connector-curvature="0"
         id="path194"
         style="fill:#231f20;fill-opacity:1;fill-rule:nonzero;stroke:none;stroke-width:0.03527778"
         d="m -503.71662,28.832831 c 0.29644,0.18027 0.9102,0.391936 1.38631,0.391936 0.48687,0 0.68806,-0.169333 0.68806,-0.433916 0,-0.264584 -0.15889,-0.391584 -0.76204,-0.592667 -1.06867,-0.359833 -1.48142,-0.941917 -1.47108,-1.55575 0,-0.963084 0.82546,-1.692981 2.10608,-1.692981 0.60315,0 1.14293,0.137231 1.46072,0.295981 l -0.28607,1.11125 c -0.23277,-0.127 -0.67734,-0.296334 -1.12159,-0.296334 -0.39179,0 -0.61408,0.15875 -0.61408,0.423334 0,0.243416 0.20119,0.370417 0.83619,0.592667 0.98436,0.338666 1.39693,0.836083 1.40769,1.598083 0,0.963083 -0.76207,1.671814 -2.24388,1.671814 -0.6773,0 -1.28048,-0.147814 -1.67181,-0.359481 l 0.2855,-1.153936" />
      <path
         inkscape:connector-curvature="0"
         id="path196"
         style="fill:#231f20;fill-opacity:1;fill-rule:nonzero;stroke:none;stroke-width:0.03527778"
         d="m -497.04923,23.58385 v 1.48202 h 1.15341 v 1.18498 h -1.15341 v 1.873251 c 0,0.624416 0.14814,0.910166 0.635,0.910166 0.20119,0 0.35994,-0.02117 0.47636,-0.04233 l 0.0103,1.217083 c -0.21153,0.08467 -0.59253,0.137231 -1.04772,0.137231 -0.5184,0 -0.9525,-0.179564 -1.20632,-0.444147 -0.29641,-0.306917 -0.44457,-0.804686 -0.44457,-1.534584 v -2.11667 h -0.68792 v -1.18498 h 0.68792 v -1.122186 l 1.57691,-0.359834" />
      <path
         inkscape:connector-curvature="0"
         id="path198"
         style="fill:#231f20;fill-opacity:1;fill-rule:nonzero;stroke:none;stroke-width:0.03527778"
         d="M -494.69969,30.240767 V 25.06587 h 1.6086 v 5.174897 h -1.6086" />
      <path
         inkscape:connector-curvature="0"
         id="path200"
         style="fill:#231f20;fill-opacity:1;fill-rule:nonzero;stroke:none;stroke-width:0.03527778"
         d="m -489.73639,23.58385 v 1.48202 h 1.15355 v 1.18498 h -1.15355 v 1.873251 c 0,0.624416 0.14827,0.910166 0.635,0.910166 0.20119,0 0.36008,-0.02117 0.47611,-0.04233 l 0.0106,1.217083 c -0.21152,0.08467 -0.59252,0.137231 -1.04757,0.137231 -0.51841,0 -0.95264,-0.179564 -1.20646,-0.444147 -0.2963,-0.306917 -0.44443,-0.804686 -0.44443,-1.534584 v -2.11667 h -0.68806 v -1.18498 h 0.68806 v -1.122186 l 1.57677,-0.359834" />
      <path
         inkscape:connector-curvature="0"
         id="path202"
         style="fill:#231f20;fill-opacity:1;fill-rule:nonzero;stroke:none;stroke-width:0.03527778"
         d="m -482.50861,28.579184 c 0,0.677333 0.0215,1.227667 0.0424,1.661583 h -1.39689 l -0.0742,-0.730602 h -0.0317 c -0.20119,0.317852 -0.68792,0.847019 -1.61922,0.847019 -1.04771,0 -1.82037,-0.656519 -1.82037,-2.25425 V 25.06587 h 1.61918 v 2.783064 c 0,0.751417 0.24363,1.2065 0.80451,1.2065 0.44443,0 0.69825,-0.306917 0.80437,-0.56127 0.042,-0.0949 0.0528,-0.221897 0.0528,-0.348897 V 25.06587 h 1.61903 v 3.513314" />
      <path
         inkscape:connector-curvature="0"
         id="path204"
         style="fill:#231f20;fill-opacity:1;fill-rule:nonzero;stroke:none;stroke-width:0.03527778"
         d="m -479.15334,23.58385 v 1.48202 h 1.15359 v 1.18498 h -1.15359 v 1.873251 c 0,0.624416 0.14813,0.910166 0.635,0.910166 0.20119,0 0.35994,-0.02117 0.47625,-0.04233 l 0.0106,1.217083 c -0.21167,0.08467 -0.59267,0.137231 -1.04786,0.137231 -0.51841,0 -0.9525,-0.179564 -1.20646,-0.444147 -0.29613,-0.306917 -0.44443,-0.804686 -0.44443,-1.534584 v -2.11667 h -0.68792 v -1.18498 h 0.68792 v -1.122186 l 1.57691,-0.359834" />
      <path
         inkscape:connector-curvature="0"
         id="path206"
         style="fill:#231f20;fill-opacity:1;fill-rule:nonzero;stroke:none;stroke-width:0.03527778"
         d="m -475.49115,27.647851 c 0,0.889 0.37042,1.55575 1.05798,1.55575 0.62442,0 1.02658,-0.624417 1.02658,-1.55575 0,-0.772584 -0.29633,-1.555751 -1.02658,-1.555751 -0.77258,0 -1.05798,0.793751 -1.05798,1.555751 z m 3.74615,-0.05292 c 0,1.894417 -1.34409,2.76225 -2.73015,2.76225 -1.51342,0 -2.67758,-0.995186 -2.67758,-2.667 0,-1.672167 1.10031,-2.740731 2.76189,-2.740731 1.5875,0 2.64584,1.089731 2.64584,2.645481" />
      <path
         inkscape:connector-curvature="0"
         id="path208"
         style="fill:#231f20;fill-opacity:1;fill-rule:nonzero;stroke:none;stroke-width:0.03527778"
         d="m -468.03061,30.240767 v -7.132814 h 1.88384 l 1.48166,2.613731 c 0.42369,0.751416 0.84667,1.640064 1.16417,2.44475 h 0.0317 c -0.10583,-0.941917 -0.13758,-1.905 -0.13758,-2.973917 v -2.084564 h 1.48202 v 7.132814 h -1.69369 l -1.524,-2.751666 c -0.42333,-0.762001 -0.88865,-1.682751 -1.2379,-2.518834 l -0.0318,0.01058 c 0.0423,0.941917 0.0632,1.947334 0.0632,3.111501 v 2.148416 h -1.48167" />
      <path
         inkscape:connector-curvature="0"
         id="path210"
         style="fill:#231f20;fill-opacity:1;fill-rule:nonzero;stroke:none;stroke-width:0.03527778"
         d="m -457.56369,27.796017 c -0.84666,-0.01058 -1.50283,0.1905 -1.50283,0.814917 0,0.412397 0.27517,0.613833 0.635,0.613833 0.40217,0 0.73025,-0.264583 0.83608,-0.592666 0.0212,-0.08467 0.0317,-0.179917 0.0317,-0.275167 z m 0.1905,2.44475 -0.0952,-0.518583 h -0.0317 c -0.33866,0.41275 -0.86783,0.635 -1.48166,0.635 -1.04775,0 -1.67217,-0.762 -1.67217,-1.5875 0,-1.344083 1.2065,-1.989667 3.03742,-1.979084 v -0.07408 c 0,-0.275167 -0.14817,-0.66675 -0.94192,-0.66675 -0.52917,0 -1.09008,0.179917 -1.42875,0.391583 l -0.29633,-1.036813 c 0.35983,-0.201437 1.06926,-0.455084 2.01083,-0.455084 1.72508,0 2.27542,1.015647 2.27542,2.232731 v 1.798814 c 0,0.497417 0.0212,0.974019 0.0741,1.259769 h -1.44992" />
      <path
         inkscape:connector-curvature="0"
         id="path212"
         style="fill:#231f20;fill-opacity:1;fill-rule:nonzero;stroke:none;stroke-width:0.03527778"
         d="m -450.3776,30.113415 c -0.28575,0.127352 -0.8255,0.232833 -1.43934,0.232833 -1.67216,0 -2.74073,-1.015647 -2.74073,-2.645481 0,-1.513417 1.03682,-2.751314 2.96298,-2.751314 0.42334,0 0.889,0.07408 1.22767,0.200731 l -0.254,1.196269 c -0.1905,-0.08502 -0.47625,-0.159103 -0.89958,-0.159103 -0.84632,0 -1.397,0.60325 -1.38642,1.449917 0,0.9525 0.635,1.449917 1.41817,1.449917 0.381,0 0.67733,-0.06385 0.92075,-0.15875 l 0.1905,1.184981" />
      <path
         inkscape:connector-curvature="0"
         id="path214"
         style="fill:#231f20;fill-opacity:1;fill-rule:nonzero;stroke:none;stroke-width:0.03527778"
         d="M -449.02294,30.240767 V 25.06587 h 1.60867 v 5.174897 h -1.60867" />
      <path
         inkscape:connector-curvature="0"
         id="path216"
         style="fill:#231f20;fill-opacity:1;fill-rule:nonzero;stroke:none;stroke-width:0.03527778"
         d="m -444.29219,27.647851 c 0,0.889 0.37042,1.55575 1.05798,1.55575 0.62477,0 1.02659,-0.624417 1.02659,-1.55575 0,-0.772584 -0.29598,-1.555751 -1.02659,-1.555751 -0.77223,0 -1.05798,0.793751 -1.05798,1.555751 z m 3.74615,-0.05292 c 0,1.894417 -1.34373,2.76225 -2.73015,2.76225 -1.51341,0 -2.67758,-0.995186 -2.67758,-2.667 0,-1.672167 1.10031,-2.740731 2.7619,-2.740731 1.5875,0 2.64583,1.089731 2.64583,2.645481" />
      <path
         inkscape:connector-curvature="0"
         id="path218"
         style="fill:#231f20;fill-opacity:1;fill-rule:nonzero;stroke:none;stroke-width:0.03527778"
         d="m -439.08519,26.716517 c 0,-0.645583 -0.0212,-1.195917 -0.0423,-1.650647 h 1.397 l 0.0741,0.70873 h 0.0317 c 0.21132,-0.328083 0.74048,-0.825147 1.59809,-0.825147 1.05798,0 1.85173,0.698147 1.85173,2.222148 v 3.069166 h -1.60867 v -2.868083 c 0,-0.66675 -0.23283,-1.121834 -0.81456,-1.121834 -0.4445,0 -0.70909,0.306917 -0.81527,0.603251 -0.042,0.09525 -0.0632,0.254 -0.0632,0.402166 v 2.9845 h -1.60867 v -3.52425" />
      <path
         inkscape:connector-curvature="0"
         id="path220"
         style="fill:#231f20;fill-opacity:1;fill-rule:nonzero;stroke:none;stroke-width:0.03527778"
         d="m -429.66637,27.796017 c -0.84667,-0.01058 -1.50248,0.1905 -1.50248,0.814917 0,0.412397 0.27481,0.613833 0.63464,0.613833 0.40217,0 0.73025,-0.264583 0.83609,-0.592666 0.0212,-0.08467 0.0318,-0.179917 0.0318,-0.275167 z m 0.1905,2.44475 -0.0953,-0.518583 h -0.0317 c -0.33867,0.41275 -0.86784,0.635 -1.48167,0.635 -1.04775,0 -1.67181,-0.762 -1.67181,-1.5875 0,-1.344083 1.20614,-1.989667 3.03706,-1.979084 v -0.07408 c 0,-0.275167 -0.14817,-0.66675 -0.94192,-0.66675 -0.52916,0 -1.09008,0.179917 -1.42875,0.391583 l -0.29633,-1.036813 c 0.35983,-0.201437 1.06927,-0.455084 2.01119,-0.455084 1.72473,0 2.27506,1.015647 2.27506,2.232731 v 1.798814 c 0,0.497417 0.0212,0.974019 0.0741,1.259769 h -1.44991" />
      <path
         inkscape:connector-curvature="0"
         id="path222"
         style="fill:#231f20;fill-opacity:1;fill-rule:nonzero;stroke:none;stroke-width:0.03527778"
         d="m -426.36402,22.726953 h 1.60831 v 7.513814 h -1.60831 v -7.513814" />
      <path
         inkscape:connector-curvature="0"
         id="path224"
         style="fill:#231f20;fill-opacity:1;fill-rule:nonzero;stroke:none;stroke-width:0.03527778"
         d="m -416.0876,27.224517 h -2.62502 v 1.693334 h 2.93193 v 1.322916 h -4.55118 v -7.132814 h 4.40267 v 1.322564 h -2.78342 v 1.481667 h 2.62502 v 1.312333" />
      <path
         inkscape:connector-curvature="0"
         id="path226"
         style="fill:#231f20;fill-opacity:1;fill-rule:nonzero;stroke:none;stroke-width:0.03527778"
         d="m -414.17237,22.726953 h 1.60867 v 7.513814 h -1.60867 v -7.513814" />
      <path
         inkscape:connector-curvature="0"
         id="path228"
         style="fill:#231f20;fill-opacity:1;fill-rule:nonzero;stroke:none;stroke-width:0.03527778"
         d="m -407.6107,27.065767 c 0,-0.391583 -0.16969,-1.04775 -0.91017,-1.04775 -0.67733,0 -0.9525,0.613833 -0.99519,1.04775 z m -1.89442,1.100667 c 0.0529,0.666397 0.70873,0.98425 1.46015,0.98425 0.55033,0 0.99518,-0.07408 1.42875,-0.211667 l 0.21202,1.090084 c -0.52917,0.211666 -1.17475,0.317147 -1.87361,0.317147 -1.75648,0 -2.76189,-1.015647 -2.76189,-2.634897 0,-1.312334 0.81491,-2.761898 2.61373,-2.761898 1.67252,0 2.30716,1.301397 2.30716,2.581981 0,0.275167 -0.0317,0.518583 -0.0529,0.635 h -3.3334" />
      <path
         inkscape:connector-curvature="0"
         id="path230"
         style="fill:#231f20;fill-opacity:1;fill-rule:nonzero;stroke:none;stroke-width:0.03527778"
         d="m -400.7527,30.113415 c -0.28575,0.127352 -0.8255,0.232833 -1.43934,0.232833 -1.67216,0 -2.74073,-1.015647 -2.74073,-2.645481 0,-1.513417 1.03682,-2.751314 2.96298,-2.751314 0.42334,0 0.889,0.07408 1.22767,0.200731 l -0.254,1.196269 c -0.1905,-0.08502 -0.47625,-0.159103 -0.89958,-0.159103 -0.84667,0 -1.397,0.60325 -1.38642,1.449917 0,0.9525 0.635,1.449917 1.41817,1.449917 0.381,0 0.67733,-0.06385 0.92075,-0.15875 l 0.1905,1.184981" />
      <path
         inkscape:connector-curvature="0"
         id="path232"
         style="fill:#231f20;fill-opacity:1;fill-rule:nonzero;stroke:none;stroke-width:0.03527778"
         d="m -397.37662,23.58385 v 1.48202 h 1.15323 v 1.18498 h -1.15323 v 1.873251 c 0,0.624416 0.14817,0.910166 0.635,0.910166 0.20144,0 0.35983,-0.02117 0.47625,-0.04233 l 0.0102,1.217083 c -0.21131,0.08467 -0.59231,0.137231 -1.04704,0.137231 -0.51894,0 -0.95321,-0.179564 -1.2065,-0.444147 -0.29634,-0.306917 -0.4445,-0.804686 -0.4445,-1.534584 v -2.11667 h -0.68827 v -1.18498 h 0.68827 v -1.122186 l 1.57656,-0.359834" />
      <path
         inkscape:connector-curvature="0"
         id="path234"
         style="fill:#231f20;fill-opacity:1;fill-rule:nonzero;stroke:none;stroke-width:0.03527778"
         d="m -393.46114,27.647851 c 0,0.889 0.37077,1.55575 1.05833,1.55575 0.62442,0 1.02659,-0.624417 1.02659,-1.55575 0,-0.772584 -0.29598,-1.555751 -1.02659,-1.555751 -0.77223,0 -1.05833,0.793751 -1.05833,1.555751 z m 3.74615,-0.05292 c 0,1.894417 -1.34338,2.76225 -2.7298,2.76225 -1.51377,0 -2.67758,-0.995186 -2.67758,-2.667 0,-1.672167 1.10031,-2.740731 2.76154,-2.740731 1.5875,0 2.64584,1.089731 2.64584,2.645481" />
      <path
         inkscape:connector-curvature="0"
         id="path236"
         style="fill:#231f20;fill-opacity:1;fill-rule:nonzero;stroke:none;stroke-width:0.03527778"
         d="m -388.20122,26.769434 c 0,-0.762 -0.0212,-1.259417 -0.042,-1.703564 h 1.38641 l 0.0529,0.952147 h 0.042 c 0.26458,-0.751417 0.89994,-1.068564 1.39665,-1.068564 0.14887,0 0.2226,0 0.33902,0.02081 v 1.513417 c -0.11642,-0.02117 -0.254,-0.04233 -0.43392,-0.04233 -0.59267,0 -0.99483,0.3175 -1.10031,0.814917 -0.0215,0.105481 -0.0317,0.232834 -0.0317,0.359834 v 2.624666 h -1.60902 v -3.471333" />
      <path
         inkscape:connector-curvature="0"
         id="path238"
         style="fill:#231f20;fill-opacity:1;fill-rule:nonzero;stroke:none;stroke-width:0.03527778"
         d="m -381.02572,27.796017 c -0.84667,-0.01058 -1.50284,0.1905 -1.50284,0.814917 0,0.412397 0.27517,0.613833 0.63536,0.613833 0.40181,0 0.72989,-0.264583 0.83573,-0.592666 0.0215,-0.08467 0.0318,-0.179917 0.0318,-0.275167 z m 0.19085,2.44475 -0.0956,-0.518583 h -0.0317 c -0.33832,0.41275 -0.86748,0.635 -1.48132,0.635 -1.0481,0 -1.67252,-0.762 -1.67252,-1.5875 0,-1.344083 1.2065,-1.989667 3.03742,-1.979084 v -0.07408 c 0,-0.275167 -0.14817,-0.66675 -0.94192,-0.66675 -0.52916,0 -1.09008,0.179917 -1.42839,0.391583 l -0.29634,-1.036813 c 0.35984,-0.201437 1.06892,-0.455084 2.01048,-0.455084 1.72544,0 2.27542,1.015647 2.27542,2.232731 v 1.798814 c 0,0.497417 0.0212,0.974019 0.0744,1.259769 h -1.44992" />
      <path
         inkscape:connector-curvature="0"
         id="path240"
         style="fill:#231f20;fill-opacity:1;fill-rule:nonzero;stroke:none;stroke-width:0.03527778"
         d="m -377.6701,22.726953 h 1.60831 v 7.513814 h -1.60831 v -7.513814" />
      <path
         inkscape:connector-curvature="0"
         id="path242"
         style="fill:#231f20;fill-opacity:1;fill-rule:nonzero;stroke:none;stroke-width:0.03527778"
         d="m -493.09109,24.641478 h -1.6086 V 23.58385 h 1.6086 v 1.057628" />
      <path
         inkscape:connector-curvature="0"
         id="path244"
         style="fill:#231f20;fill-opacity:1;fill-rule:nonzero;stroke:none;stroke-width:0.03527778"
         d="m -447.41427,24.641478 h -1.60867 V 23.58385 h 1.60867 v 1.057628" />
    </g>
  </g>
</svg>
