<?xml version="1.0" encoding="utf-8"?>
<!-- Generator: Adobe Illustrator 23.1.0, SVG Export Plug-In . SVG Version: 6.00 Build 0)  -->
<svg version="1.1"
	 id="svg2" inkscape:version="0.91 r13725" sodipodi:docname="Isuzu.svg" xmlns:cc="http://creativecommons.org/ns#" xmlns:dc="http://purl.org/dc/elements/1.1/" xmlns:inkscape="http://www.inkscape.org/namespaces/inkscape" xmlns:rdf="http://www.w3.org/1999/02/22-rdf-syntax-ns#" xmlns:sodipodi="http://sodipodi.sourceforge.net/DTD/sodipodi-0.dtd" xmlns:svg="http://www.w3.org/2000/svg"
	 xmlns="http://www.w3.org/2000/svg" xmlns:xlink="http://www.w3.org/1999/xlink" x="0px" y="0px" viewBox="0 0 1000 171.8"
	 style="enable-background:new 0 0 1000 171.8;" xml:space="preserve">
<style type="text/css">
	.st0{fill:#ED1C24;}
</style>
<sodipodi:namedview  bordercolor="#666666" borderopacity="1" gridtolerance="10" guidetolerance="10" id="namedview7014" inkscape:current-layer="svg2" inkscape:cx="998.50064" inkscape:cy="171.39226" inkscape:pageopacity="0" inkscape:pageshadow="2" inkscape:window-height="705" inkscape:window-maximized="1" inkscape:window-width="1366" inkscape:window-x="-8" inkscape:window-y="-8" inkscape:zoom="256" objecttolerance="10" pagecolor="#ffffff" showgrid="false">
	</sodipodi:namedview>
<path id="path11" inkscape:connector-curvature="0" class="st0" d="M435.3,171.2c3.5,0,25.1-0.1,42.5-1.3c21-1.5,31.9-8.7,39.8-19
	c9.8-12.8,9.8-36.8,9.8-55.4c0-20.8,0.3-81.2,0.2-86.6c-0.1-5.4-2.1-8.2-8.3-8.2c-6.2,0-23.6,0-29.6,0.1L479,0.7
	c-6.2-0.1-8.2,2.8-8.3,8.2v5.8c0.1,6.4-0.1,67.3-0.1,81.6v6.3c-0.2,13.1-1.8,25.9-20.4,27.9c-8,0.8-11.7,1.2-21.6,1.2
	c-10,0-13.6-0.4-21.7-1.2c-18.6-2-19.7-14.8-19.9-27.9v-6.3c0-14.3-0.2-75.2-0.1-81.6V8.9c-0.1-5.4-2.1-8.2-8.3-8.2l-10.7,0.1
	c-6-0.1-23.4,0-29.6-0.1c-6.2-0.1-8.2,2.8-8.3,8.2c-0.1,5.4,0,65.7-0.1,86.6c0,18.7-0.1,42.6,9.8,55.4c7.9,10.3,18.6,17.5,39.6,19
	c17.4,1.2,38.3,1.3,42.9,1.3H435.3L435.3,171.2z M57.4,163.4c-0.1,5.9-1.9,8.2-7.9,8.3c-6,0.2-35.5,0.1-40.9,0
	c-5.3-0.1-8.6-1.7-8.7-7.4C0,158.6,0,14.6,0,9.1c0-5.4,2.6-8,8.2-7.9c5.6,0.1,34.6-0.2,42.3,0c5.8,0,7.2,3.3,7.2,9.3
	C57.8,18.5,57.6,157.6,57.4,163.4 M860.4,105.1c0.1,13.5,3.4,22.6,18.9,25c12.4,1.3,29.2,1.5,42.1,0.2c11.8-1.3,20.9-6.1,21.4-19.4
	c0.6-11.3,0.6-13.2,0.7-25.1c0.1-28.8-0.2-70.7-0.2-74.9l0.1-1.7c-0.1-6.4,2.8-9.1,8.2-9.1l3.2-0.1c6.2,0.1,30.9,0.1,36.9,0.1
	c5.4,0,8.3,2.7,8.2,9.1l-0.1,2c0.1,6-0.1,69.8-0.1,88.7c-0.3,9.5-1,31.5-8.3,45.5c-6.3,12.1-17.7,21.4-37,23.4
	c-37.1,3.7-70.9,2.2-97,1.1c-19.4-1-31.8-5.3-42.2-16.8c-11.7-13.2-12.3-35.7-12.2-61.6c-0.2-57-0.4-73.5-0.3-78.9V9.2
	c-0.1-6.4,2.8-9.1,8.2-9.1l3.2-0.1c6.2,0.1,31.9,0.1,37.9,0.1c5.4,0,8.3,2.7,8.2,9.1c-0.1,6.4,0,79.5,0,95.5 M571.8,0.6
	c5.8-0.2,109.4-0.1,141.8,0.1c28.7,0.3,39.3,4.4,47.1,14.8c9,12,9.9,27.1,2.7,39.5c-5.2,8.9-14.8,16.7-29.3,23.7
	c-11.5,5.9-31.6,14.8-51.2,23.5c-26.3,11.6-50.1,21.7-54.1,23.8c-5.4,2.8-3.4,7.1,0.9,7c11.2-0.1,119.8-1,125.6-1
	c5.8,0,7.7,2.1,7.7,8.3c0,6.5,0.1,17.7,0.1,22.8c-0.1,6.1-2.1,7.8-7.8,7.8c-6.6,0.1-122.2,0.1-130.4,0.1c-18.3,0-37.1,0-48.3-5.4
	c-14-6.8-18.8-20.5-18.8-30c0.7-23.3,13.7-30.8,37.1-41.7c26-11.8,102.9-45.1,107.5-47.2c5.7-2.6,3.9-7.8-1.4-7.7
	c-4,0.1-121.8,0.7-127.6,0.7c-5.8,0-9.5-1-9.5-6.6c0-5.6-0.1-19.6-0.1-25.4C563.6,2,566,0.8,571.8,0.6 M267.6,88.4
	c-26.1-10.8-102.1-34.9-112.2-39.9c-4.9-2.1-4.5-8.3,2-8.3c11.2,0.2,122.7,0.4,128.5,0.4c5.8,0,8.3-2.2,8.3-8.5
	c0-6.5,0-18.5-0.1-23.8c-0.1-5.4-2-7.4-6.8-7.4c-4.8,0-133.5,0.2-133.5,0.2C117.9,1,108.7,6.3,98.5,18.5c-13.3,15.9-9,37.5-1.4,48.7
	c8.6,12.5,22.7,18,45.3,25.8c27.3,8.9,91.5,31.5,91.5,31.5c5.9,2.5,5.4,8.7-1.8,8.7c0,0-122.6-1.1-128.4-1.1c-5.8,0-8.7,2.8-8.7,8.5
	c0,5.6-0.1,15.9-0.1,21.8c0,5.8,1.7,9.1,7.5,9.3c5.8,0.2,111.2-0.2,143.6-0.3c24.7-0.1,48.5-7.7,53.4-34.9
	C302.3,112.9,292.3,98.4,267.6,88.4"/>
</svg>
