<?xml version="1.0" encoding="UTF-8"?>
<svg id="Layer_2" data-name="Layer 2" xmlns="http://www.w3.org/2000/svg" width="1991" height="1991" viewBox="0 0 1991 1991">
  <defs>
    <style>
      .cls-1 {
        fill: #db0007;
      }

      .cls-2 {
        fill: #ffb71b;
      }
    </style>
  </defs>
  <g id="Layer_1-2" data-name="Layer 1">
    <path class="cls-1" d="m172.47,1991S0,1991,0,1818.53V172.47S0,0,172.47,0h1646.07s172.47,0,172.47,172.47v1646.06s0,172.47-172.47,172.47H172.47Z"/>
    <path class="cls-2" d="m1284.74,409.16c-116.81,0-220.98,155.63-289.14,398.97-68.12-243.34-172.34-398.97-289.15-398.97-205.28,0-371.77,517.81-371.77,1156.54h165.26c0-593.1,92.49-1073.92,206.52-1073.92s206.54,443.85,206.54,991.32h165.22c0-547.47,92.46-991.32,206.53-991.32s206.55,480.82,206.55,1073.92h165.19c0-638.73-166.43-1156.54-371.74-1156.54"/>
  </g>
</svg>