<?xml version="1.0" encoding="utf-8"?>
<svg xmlns="http://www.w3.org/2000/svg" viewBox="0 0 952.2 220.2" width="952.2px" height="220.2px">
  <path d="M 877.514 0 C 826.929 0 786.555 21.038 778.933 65.506 C 765.344 145.47 878.162 120.6 872.801 152.324 C 871.022 162.171 862.14 171.125 845.504 171.125 C 839.138 171.125 832.415 169.4 827.596 165.865 C 822.628 162.45 817.547 157.048 818.29 134.808 L 790.624 134.808 C 790.125 155.073 792.409 167.954 798.115 175.587 C 810.193 193.496 834.307 194.4 839.132 194.4 C 877.882 194.4 903.823 177.58 908.624 149.278 C 912.325 128.103 893.131 121.267 871.159 115.483 C 866.977 114.436 863.407 113.24 858.57 112.074 C 839.4 107.201 803.702 98.122 805.879 66.036 C 808.539 24.596 856.69 21.443 871.421 21.443 C 892.899 21.443 908.012 28.404 916.657 42.1 C 923.273 52.881 923.749 65.101 924.022 70.51 L 924.022 70.896 L 952.2 71.027 C 951.962 28.802 933.518 0 877.514 0 M 911.689 45.372 C 904.186 33.526 890.728 27.488 871.421 27.488 C 857.939 27.488 813.983 30.254 811.603 66.416 C 809.794 93.398 840.042 101.139 859.974 106.279 C 864.799 107.457 868.494 108.522 872.801 109.694 C 890.234 114.186 919.328 121.802 914.485 150.331 C 909.142 181.781 880.952 200.475 839.132 200.475 C 833.813 200.475 807.129 199.416 793.415 179.151 C 786.805 170.464 784.252 156.661 784.776 134.808 L 758.621 134.808 C 752.76 187.302 777.66 219.787 836.99 220.186 C 892.62 220.716 934.922 198.731 942.175 150.218 C 953.997 71.17 836.865 94.564 841.435 60.633 C 842.434 52.994 849.419 47.354 864.049 47.354 C 870.523 47.354 876.234 48.532 880.554 51.173 C 884.861 53.803 887.812 58.134 889.336 71.027 L 918.156 70.896 L 918.156 70.629 C 918.037 65.893 917.531 54.713 911.689 45.372 M 224.672 5.67 L 177.789 213.493 L 328.702 213.493 L 333.789 189.932 L 212.85 189.932 L 249.816 29.856 L 369.868 29.856 L 375.58 5.67 L 224.678 5.67 L 224.672 5.67 M 220.21 183.887 L 335.205 183.887 L 339.894 162.825 L 250.708 162.825 L 257.312 135.355 L 341.548 135.355 L 346.26 112.58 L 262.911 112.58 L 264.559 106.547 L 347.509 106.547 L 352.352 83.783 L 300.257 83.783 L 269.003 83.783 L 275.607 57.617 L 363.526 57.617 L 368.482 35.918 L 254.385 35.918 L 220.21 183.887 M 513.672 6.051 L 485.59 6.051 L 366.81 213.487 L 393.881 213.487 L 413.831 179.532 L 486.369 179.532 L 492.604 213.487 L 517.867 213.487 L 507.586 154.698 L 427.681 154.698 L 430.984 148.617 L 506.574 148.617 L 488.535 47.08 L 493.223 38.405 L 523.846 213.487 L 549.769 213.487 L 513.672 6.051 M 444.442 124.569 L 470.501 78.655 L 478.254 124.569 L 444.442 124.569 M 452.456 6.051 L 332.903 213.487 L 359.974 213.487 L 478.742 6.051 L 452.45 6.051 L 452.456 6.051 M 79.327 220.186 C 134.838 220.716 177.152 198.731 184.393 150.218 C 196.215 71.17 79.214 94.564 83.653 60.633 C 84.664 52.994 91.786 47.354 106.386 47.354 C 112.735 47.354 118.458 48.532 122.772 51.173 C 127.109 53.803 130.025 58.134 131.554 71.027 L 160.511 70.896 L 160.511 70.629 C 160.249 65.893 159.749 54.713 153.895 45.372 C 146.553 33.526 132.952 27.488 113.746 27.488 C 100.306 27.488 56.344 30.254 53.922 66.416 C 52.155 93.398 82.243 101.139 102.335 106.279 C 107.154 107.457 110.843 108.522 115.043 109.694 C 132.44 114.186 161.534 121.802 156.697 150.331 C 151.366 181.781 123.153 200.475 81.368 200.475 C 76.162 200.475 49.359 199.416 35.639 179.151 C 29.035 170.464 26.369 156.661 27.119 134.808 L 0.821 134.808 C 0.286 139.538 0.012 144.286 0 149.046 C -0.048 193.121 25.453 219.817 79.327 220.186 M 81.368 194.4 C 120.106 194.4 146.16 177.58 150.991 149.278 C 154.555 128.103 135.361 121.267 113.389 115.483 C 109.326 114.436 105.637 113.24 100.937 112.074 C 81.749 107.201 45.92 98.122 48.091 66.036 C 50.763 24.596 99.021 21.443 113.746 21.443 C 135.112 21.443 150.212 28.404 158.869 42.1 C 165.598 52.881 166.103 65.101 166.353 70.51 L 166.353 70.896 L 194.418 71.027 C 194.311 28.802 175.891 0 119.743 0 C 69.183 0 28.773 21.038 21.157 65.506 C 7.568 145.47 120.493 120.6 115.043 152.324 C 113.389 162.171 104.364 171.125 87.853 171.125 C 81.368 171.125 74.627 169.4 69.933 165.865 C 64.869 162.45 59.771 157.048 60.526 134.808 L 32.979 134.808 C 32.337 155.334 34.484 167.829 40.339 175.587 C 52.417 193.496 76.662 194.4 81.368 194.4 M 771.062 62.49 C 771.062 23.4 745.657 5.789 701.807 5.789 L 598.67 5.789 L 552.678 213.493 L 580.612 213.493 L 621.165 28.279 L 702.188 28.279 C 715.527 28.279 726.469 32.622 733.948 40.505 C 740.689 47.621 744.502 57.617 744.502 68.659 C 744.502 82.457 738.927 96.415 729.271 106.916 C 721.977 114.847 712.529 120.469 702.081 123.111 C 705.496 125.086 708.685 127.585 711.208 130.602 C 715.67 136.01 720.507 145.476 718.336 159.684 L 718.472 159.41 C 718.472 159.41 718.472 159.559 718.336 159.684 L 718.336 159.815 L 718.336 159.684 C 718.336 160.058 718.193 160.856 717.836 163.099 C 715.408 179.532 713.255 198.363 719.115 213.493 L 745.413 213.493 C 743.747 209.001 740.689 202.825 744.627 187.302 C 748.953 170.054 755.182 136.266 732.954 124.569 C 738.797 121.665 771.062 107.987 771.062 62.49 M 712.118 162.171 L 712.606 158.898 C 714.403 146.785 710.464 139.026 706.787 134.564 C 702.087 128.9 694.834 125.223 687.98 125.086 L 633.987 125.086 L 635.635 119.041 L 687.98 119.041 C 706.525 118.518 718.336 109.962 725.071 102.733 C 733.71 93.249 738.66 80.886 738.66 68.659 C 738.66 59.176 735.489 50.638 729.777 44.718 C 723.423 38.007 713.879 34.336 702.188 34.336 L 625.836 34.336 L 586.609 213.487 L 613.8 213.487 L 628.4 148.617 L 663.706 148.617 C 668.787 148.617 686.957 146.118 681.638 167.954 C 680.353 175.468 676.926 194.799 681.638 213.487 L 713.13 213.487 C 707.662 197.417 709.56 178.746 712.118 162.171 M 648.968 57.474 L 684.297 57.474 C 701.076 57.474 706.145 66.416 706.145 73.937 C 706.145 85.217 696.119 95.106 674.492 95.106 L 640.96 95.106 L 648.968 57.474" style="fill-opacity: 1; fill: rgb(228, 0, 43);"/>
</svg>